PathFileType	4	(X/Y/Z)	C:\Users\Basilio\Documents\Thesis Gigler\squatting_fais\c3dfiles\044\SLS_front_pre3\markers_experimental.trc
DataRate	CameraRate	NumFrames	NumMarkers	Units	OrigDataRate	OrigDataStartFrame	OrigNumFrames
200.000000	200.000000	4	60	mm	200.000000	1032	1376
Frame#	Time	FHD			LBHD			RBHD			C7			T10			CLAV			LSHO			LUUPA			LMUPA			LDUPA			LLEP			LMEP			LUL			LRFIN			RSHO			RUPA1			RMUPA			RDUPA			RLEP			RMEP			RUL			RUFIN			LASI			RASI			USACR			LSACR			RSACR			LTHI1			LTHI2			LTHI3			LTHI4			LLFC			LMFC			LTIB1			LTIB2			LTIB3			LTIB4			LLMAL			LMMAL			LHEE			LMT1			LMT2			LMT5			RTHI			RTHI2			RTHI3			RTHI4			RLFC			RMFC			RTIB1			RTIB2			RTIB3			RTIB4			RLMAL			RHEE			RMT1			RMT2			RMT5			LRAD			RMMAL			
		X1	Y1	Z1	X2	Y2	Z2	X3	Y3	Z3	X4	Y4	Z4	X5	Y5	Z5	X6	Y6	Z6	X7	Y7	Z7	X8	Y8	Z8	X9	Y9	Z9	X10	Y10	Z10	X11	Y11	Z11	X12	Y12	Z12	X13	Y13	Z13	X14	Y14	Z14	X15	Y15	Z15	X16	Y16	Z16	X17	Y17	Z17	X18	Y18	Z18	X19	Y19	Z19	X20	Y20	Z20	X21	Y21	Z21	X22	Y22	Z22	X23	Y23	Z23	X24	Y24	Z24	X25	Y25	Z25	X26	Y26	Z26	X27	Y27	Z27	X28	Y28	Z28	X29	Y29	Z29	X30	Y30	Z30	X31	Y31	Z31	X32	Y32	Z32	X33	Y33	Z33	X34	Y34	Z34	X35	Y35	Z35	X36	Y36	Z36	X37	Y37	Z37	X38	Y38	Z38	X39	Y39	Z39	X40	Y40	Z40	X41	Y41	Z41	X42	Y42	Z42	X43	Y43	Z43	X44	Y44	Z44	X45	Y45	Z45	X46	Y46	Z46	X47	Y47	Z47	X48	Y48	Z48	X49	Y49	Z49	X50	Y50	Z50	X51	Y51	Z51	X52	Y52	Z52	X53	Y53	Z53	X54	Y54	Z54	X55	Y55	Z55	X56	Y56	Z56	X57	Y57	Z57	X58	Y58	Z58	X59	Y59	Z59	X60	Y60	Z60	

1033	5.16	-225.6176300048829	1814.605834960938	-967.386901855469	-354.7504272460938	1773.222534179688	-1048.426513671875	-400.201873779297	1749.359252929688	-889.9123535156252	-408.6914367675782	1583.679443359375	-985.6956787109377	-432.1986083984376	1283.584716796875	-980.5242309570315	-269.5270385742188	1545.872680664063	-977.397644042969	-303.7335510253907	1603.377807617188	-1126.020629882813	-135.4772338867188	1569.336181640625	-1219.577026367188	-108.0313339233399	1582.08837890625	-1178.339111328125	-65.82471466064455	1564.138671875	-1219.736938476563	-7.377886295318605	1561.828002929688	-1206.76025390625	-20.19985389709473	1485.544067382813	-1191.132690429688	232.1394500732422	1571.813110351563	-1059.898193359375	231.7985076904297	1586.060424804688	-955.427185058594	-337.0144348144532	1589.532104492188	-824.2226562500002	-187.8695220947266	1558.958374023438	-717.1033935546876	-156.4908142089844	1574.578735351563	-753.9841308593751	-118.5824279785157	1556.7783203125	-710.1591796875001	-56.84045410156251	1558.469848632813	-717.0133056640626	-60.91196823120119	1478.496704101563	-730.8742675781251	203.3567504882813	1569.2314453125	-822.0432739257815	223.9157714843751	1558.734375	-935.788024902344	-267.6790466308594	1071.561279296875	-1062.017578125	-283.0341491699219	1070.151489257813	-846.8140258789065	-440.0549316406251	1133.752075195313	-966.0398559570315	-444.1062622070314	1099.896850585938	-990.7436523437502	-449.6812133789064	1108.323364257813	-934.3105468750002	-359.0889282226563	831.1014404296877	-1126.9287109375	-321.9665222167969	754.5226440429689	-1125.718505859375	-274.1391601562501	759.9486694335939	-1120.447509765625	-345.3291015625001	701.8410034179689	-1110.514038085938	-317.3117065429688	544.4355468750001	-1091.970825195313	-318.3217773437501	542.0238647460939	-969.615417480469	-292.4733886718751	372.2557373046876	-1012.612731933594	-309.9029235839844	321.7253723144532	-1082.14892578125	-281.6865844726563	323.0154113769532	-1043.630981445313	-299.1724548339844	246.1978759765626	-1012.942321777344	-342.7494506835938	127.1681442260742	-1058.850830078125	-327.4790954589844	136.3463134765625	-974.1429443359377	-407.5358276367189	109.1302108764649	-1009.290588378906	-203.865707397461	62.69885635375978	-984.242370605469	-201.1329498291016	66.63929748535158	-1031.089233398438	-238.0912322998047	51.7098846435547	-1077.843505859375	-350.1102294921876	804.5854492187502	-751.3047485351564	-301.6001281738282	757.5681762695314	-745.3782348632814	-269.5249328613282	764.2155761718751	-751.7385864257814	-313.5254821777344	674.2957763671876	-755.3532104492189	-297.3395080566407	563.8480834960939	-751.1295166015626	-307.5701599121094	545.9412231445314	-872.524597167969	-254.4366760253907	433.8053588867189	-767.6289672851564	-325.0538024902344	369.4724731445313	-711.5162353515626	-284.4871215820313	359.9965515136719	-730.2447509765626	-276.7990112304688	306.5556030273438	-751.1145019531251	-343.1624145507813	157.9828491210938	-715.6638793945314	-406.643524169922	123.1887664794922	-755.5353393554689	-202.1127166748047	82.89414978027345	-789.065856933594	-193.3339996337891	80.64981842041017	-753.3798828125001	-229.3265228271485	67.57689666748048	-698.4189453125001	213.8019256591797	1524.01611328125	-1012.008728027344	-328.4694519042969	157.4351043701172	-800.3519287109377	
1034	5.165	-225.0323638916016	1814.708374023438	-966.5364990234377	-354.7101745605469	1773.151123046875	-1047.36474609375	-400.0577087402345	1749.371948242188	-889.1534423828127	-408.8006896972657	1584.249267578125	-985.0379638671877	-431.950164794922	1283.440063476563	-979.5625610351565	-269.4418945312501	1545.849609375	-976.4534301757815	-302.9407653808594	1603.41552734375	-1125.044067382813	-135.222152709961	1569.357299804688	-1218.502807617188	-107.9064407348633	1582.069213867188	-1177.284790039063	-65.76972961425783	1564.3818359375	-1218.646118164063	-7.066200256347658	1561.932250976563	-1205.865356445313	-20.05825424194336	1485.624877929688	-1190.260009765625	232.7667083740235	1571.82666015625	-1058.943725585938	232.1877593994141	1586.189575195313	-954.4079589843752	-337.0157775878907	1589.568725585938	-823.3083496093752	-187.6546630859375	1559.006469726563	-716.0653076171876	-156.2686309814453	1574.641479492188	-753.0446777343751	-118.2562713623047	1556.763061523438	-709.2527465820314	-56.54256820678712	1558.52734375	-716.1582641601564	-60.66598510742189	1478.463012695313	-729.8643188476564	203.4228210449219	1569.361572265625	-821.0291748046877	224.4063568115235	1558.674194335938	-934.8166503906252	-267.2740478515626	1071.56640625	-1061.197509765625	-282.5683898925782	1070.00048828125	-845.943298339844	-439.4463500976564	1133.779663085938	-965.2720336914065	-443.8108215332032	1100.023559570313	-989.8504028320315	-449.001678466797	1108.217651367188	-933.5058593750002	-358.6355590820313	831.195007324219	-1126.321411132813	-321.5625305175782	754.4751586914064	-1125.104125976563	-273.9350891113282	759.8583374023439	-1119.88671875	-345.0518798828126	701.9133300781251	-1110.046020507813	-317.1140747070313	544.4091186523439	-1091.64501953125	-317.9851989746094	541.9611816406251	-969.1047973632815	-292.2167358398438	372.2636718750001	-1012.380981445313	-309.6793518066407	321.7939147949219	-1081.968139648438	-281.6261291503907	322.9900207519532	-1043.415161132813	-299.1255493164063	246.1367797851563	-1012.817016601563	-342.7182006835938	127.2920532226563	-1058.796875	-327.4916687011719	136.4002685546875	-974.1643676757815	-407.9170837402345	109.9724655151367	-1009.792297363281	-203.9464874267579	62.82796478271486	-984.3733520507815	-201.0881042480469	66.58657073974611	-1031.134887695313	-238.0661773681641	51.66417312622072	-1077.868286132813	-349.6356811523438	804.3162841796877	-750.6055908203126	-301.4155578613282	757.4022216796876	-744.6012573242189	-269.1478576660157	764.0059814453126	-751.1759033203126	-313.3064880371094	674.1470947265626	-754.9079589843751	-297.1873474121094	563.7266845703126	-750.7615356445314	-307.1904602050782	545.9448852539064	-872.1126098632815	-254.4174957275391	433.7391357421876	-767.2675781250001	-324.8749694824219	369.2992248535157	-711.1878662109376	-284.3819885253907	359.8445434570313	-730.0379638671876	-276.7698059082032	306.6101074218751	-750.8271484375001	-343.1208190917969	157.8204040527344	-715.5153198242189	-406.7922668457032	123.1133880615235	-755.3393554687501	-202.5310363769532	82.56735992431642	-789.1150512695315	-193.3948211669922	80.48536682128908	-753.4010620117189	-229.5560455322266	67.29917907714845	-698.3421630859376	214.1372833251954	1524.259521484375	-1010.930053710938	-328.8685302734376	157.4315643310547	-800.2974243164065	
1035	5.17	-225.2223052978516	1814.862670898438	-965.255310058594	-354.2963256835938	1773.3515625	-1046.511840820313	-399.9571838378907	1749.358764648438	-888.126647949219	-408.4010314941407	1584.265869140625	-984.1756591796877	-431.8150939941407	1283.621459960938	-978.6932373046877	-269.0664367675782	1545.859985351563	-975.5012817382815	-302.6294250488282	1603.4208984375	-1124.149658203125	-134.8802642822266	1569.579956054688	-1217.56640625	-107.5714111328125	1582.137817382813	-1176.147583007813	-65.44939422607423	1564.394653320313	-1217.583251953125	-6.855722427368166	1562.008911132813	-1204.774780273438	-19.78897285461426	1485.382080078125	-1189.2138671875	233.2647247314454	1571.816528320313	-1057.929443359375	232.3973236083985	1586.078002929688	-953.2788696289065	-336.6868286132813	1589.395751953125	-822.2415771484377	-187.4068908691407	1558.956298828125	-715.0140991210939	-155.9828338623047	1574.606201171875	-752.0411376953126	-118.0947418212891	1556.844116210938	-708.3757934570314	-56.3451499938965	1558.682495117188	-714.8575439453126	-60.33335494995119	1478.354370117188	-728.8468017578126	203.608383178711	1569.541381835938	-820.0349731445315	224.4794158935547	1558.84033203125	-933.753845214844	-268.7793884277344	1070.97509765625	-1059.426635742188	-282.0373535156251	1070.024047851563	-845.1153564453127	-438.8199462890626	1133.777099609375	-964.3342285156252	-443.1867065429689	1099.788208007813	-989.0142211914065	-448.6294555664064	1108.214111328125	-932.569030761719	-358.3155212402344	831.4503173828127	-1125.655517578125	-321.1534729003907	754.5647583007814	-1124.4736328125	-273.6154174804688	759.8816528320314	-1119.373413085938	-344.7080688476563	702.0577392578126	-1109.487915039063	-316.7636108398438	544.5391235351564	-1091.209106445313	-317.6432800292969	542.0067749023439	-968.8125000000002	-292.0649719238282	372.2254638671876	-1012.21875	-309.5585327148438	321.8883972167969	-1081.858764648438	-281.5710754394532	322.9749145507813	-1043.283325195313	-299.0260620117188	246.1370239257813	-1012.76806640625	-342.7149963378907	127.3382568359375	-1058.796020507813	-327.4953918457032	136.3898315429688	-974.149597167969	-407.5168762207032	109.1614151000977	-1009.289855957031	-203.8213806152344	62.72912597656251	-984.340270996094	-201.1246795654297	66.51302337646486	-1031.11328125	-238.0092773437501	51.60214233398439	-1077.896728515625	-349.2579040527344	804.1770629882815	-749.8563232421876	-300.8520202636719	757.2049560546876	-743.9143066406251	-268.7623901367188	763.9135131835939	-750.6428222656251	-313.0327148437501	674.1115112304689	-754.2737426757814	-296.9810485839844	563.6299438476564	-750.3888549804689	-306.9576110839844	545.9028320312501	-871.6705322265627	-254.2491149902344	433.5712890625001	-766.9750976562501	-324.6625061035157	369.0272521972657	-710.7467041015626	-284.2504577636719	359.5124511718751	-729.7276611328126	-276.6835937500001	306.4946594238282	-750.6121826171876	-343.0625610351563	157.5631103515625	-715.3123168945314	-406.8462524414064	123.1294631958008	-755.2868652343751	-202.6053466796876	82.28282165527345	-789.1727294921877	-193.5955963134766	79.98190307617189	-753.3308715820314	-229.7143249511719	66.9053421020508	-698.4404296875001	214.6344299316407	1524.7236328125	-1009.913024902344	-328.6676940917969	157.2200469970703	-800.0537109375002	
1036	5.175	-225.4470520019532	1814.8974609375	-963.8770751953127	-354.3154602050782	1773.114379882813	-1045.542358398438	-399.8247985839845	1749.254516601563	-887.1105957031252	-408.0035095214845	1583.71337890625	-982.9009399414065	-431.0177612304689	1283.668334960938	-978.0144042968752	-268.8227539062501	1545.89697265625	-974.4572753906252	-302.4918518066407	1603.362060546875	-1123.180908203125	-134.8576049804688	1569.281372070313	-1216.4814453125	-107.3414001464844	1582.226318359375	-1175.190673828125	-65.15878295898439	1564.544311523438	-1216.577270507813	-7.314104080200197	1562.493286132813	-1203.512329101563	-19.56257629394532	1485.650146484375	-1188.010864257813	233.4216308593751	1571.85986328125	-1056.815673828125	232.7478790283204	1586.420532226563	-952.3699340820315	-336.6589660644532	1589.5849609375	-821.3851318359377	-187.216781616211	1558.981323242188	-714.1564331054689	-155.7941589355469	1574.676879882813	-751.0798339843751	-117.7839736938477	1556.800537109375	-707.2573852539064	-56.06344985961915	1558.686279296875	-713.8596191406251	-59.96499633789064	1478.638427734375	-728.0827636718751	204.0296630859376	1569.67041015625	-819.041931152344	224.9677276611329	1558.995361328125	-932.8388671875002	-268.4597778320313	1071.033447265625	-1058.578125	-281.5709838867188	1069.984741210938	-844.4321289062502	-438.647186279297	1134.102294921875	-963.4252929687502	-442.5726928710939	1099.735717773438	-988.121765136719	-448.4341125488282	1108.01318359375	-931.6765747070315	-357.9234924316407	831.6599121093752	-1124.839599609375	-320.8623962402344	754.6962280273439	-1124.029907226563	-273.1831054687501	759.9221801757814	-1118.92578125	-344.3018188476563	702.1866455078126	-1108.997680664063	-316.4501953125001	544.5598754882814	-1090.78955078125	-317.0806579589844	541.9688110351564	-968.325134277344	-291.6464538574219	372.1823425292969	-1011.737182617188	-309.7037963867188	322.0236206054688	-1081.631713867188	-281.4847717285157	322.9946594238282	-1043.148559570313	-298.9431762695313	246.0843658447266	-1012.65966796875	-342.6811218261719	127.3504791259766	-1058.770385742188	-327.4291076660157	136.3835906982422	-974.078063964844	-407.0293273925782	108.8198471069336	-1009.724243164063	-203.7854919433594	62.66653060913087	-984.3601684570315	-201.1352996826172	66.63745117187501	-1031.106323242188	-238.0363159179688	51.59271240234376	-1077.853881835938	-348.8751525878907	804.1387329101565	-749.2257690429689	-300.5461425781251	756.9957885742189	-743.4459228515626	-268.5020446777344	763.5784301757814	-749.9244995117189	-312.7422180175782	673.9569091796876	-753.7808227539064	-296.6566772460938	563.3679809570314	-749.7777099609376	-306.7402648925782	545.7771606445314	-871.2664184570315	-254.0026397705079	433.2842102050782	-766.7039794921876	-324.7800598144532	368.8065490722657	-710.0985717773439	-284.2102050781251	359.1932373046876	-729.3248291015626	-276.6810607910157	306.1524658203126	-750.2755126953126	-343.0675048828126	157.2372131347657	-715.0576171875001	-406.8923950195314	122.8229904174805	-754.8991699218751	-202.8359069824219	82.09503173828126	-789.219665527344	-193.6530761718751	79.82872772216798	-753.3836669921876	-229.7920989990235	66.57357025146486	-698.4124755859376	214.7164459228516	1524.747802734375	-1008.869873046875	-328.7442016601563	157.1527557373047	-799.879089355469	
